<?xml version="1.0" standalone="no"?>
<!DOCTYPE svg PUBLIC "-//W3C//DTD SVG 20010904//EN"
 "http://www.w3.org/TR/2001/REC-SVG-20010904/DTD/svg10.dtd">
<svg version="1.0" xmlns="http://www.w3.org/2000/svg"
 width="1080.000000pt" height="1080.000000pt" viewBox="0 0 1080.000000 1080.000000"
 preserveAspectRatio="xMidYMid meet">
<metadata>
Created by potrace 1.14, written by Peter Selinger 2001-2017
</metadata>
<g transform="translate(0.000000,1080.000000) scale(0.100000,-0.100000)"
fill="#000000" stroke="none">
<path d="M5125 10503 c-241 -32 -315 -66 -315 -143 0 -21 -7 -45 -14 -53 -8
-8 -52 -24 -98 -36 -197 -52 -403 -141 -542 -234 -33 -22 -125 -106 -205 -186
-155 -156 -181 -194 -230 -342 -12 -37 -37 -91 -55 -121 -53 -88 -74 -139 -87
-208 -20 -110 -36 -173 -59 -235 -17 -47 -21 -72 -16 -115 4 -30 10 -93 15
-140 5 -47 15 -101 24 -120 8 -19 21 -73 27 -120 7 -47 19 -94 26 -105 8 -11
14 -28 14 -38 0 -10 7 -28 16 -42 8 -13 24 -83 34 -157 11 -73 30 -160 42
-193 30 -80 31 -214 3 -263 -11 -17 -22 -32 -26 -32 -3 0 -11 -11 -17 -25 -10
-22 -9 -25 7 -25 26 0 61 -38 77 -86 18 -51 18 -54 -6 -54 -11 0 -20 4 -20 9
0 13 -28 22 -35 11 -4 -6 5 -14 19 -20 14 -5 26 -14 26 -19 0 -6 14 -32 30
-58 45 -71 36 -167 -23 -230 -28 -30 -30 -36 -28 -109 2 -91 26 -156 71 -194
31 -26 35 -49 57 -345 4 -55 11 -78 34 -110 29 -41 36 -66 65 -220 15 -82 50
-204 74 -262 6 -13 15 -34 20 -48 20 -49 30 -71 74 -165 25 -52 59 -120 76
-150 41 -72 37 -117 -18 -232 -34 -70 -55 -98 -112 -151 -86 -79 -106 -89
-250 -122 -63 -14 -142 -35 -175 -46 -61 -21 -74 -26 -135 -52 -48 -21 -199
-79 -290 -112 -41 -15 -145 -63 -230 -105 -85 -43 -175 -87 -200 -98 -55 -24
-168 -62 -186 -62 -22 0 -205 -66 -344 -125 -74 -31 -180 -75 -235 -97 -231
-92 -389 -167 -505 -238 -41 -25 -83 -49 -93 -53 -16 -6 -17 -32 -17 -347 l0
-342 55 -100 c324 -583 746 -1067 1275 -1460 589 -437 1286 -726 2007 -833
414 -61 932 -61 1346 0 1172 173 2239 815 2949 1775 199 270 388 588 388 654
0 20 -4 36 -8 36 -5 0 -17 8 -28 18 -130 117 -321 251 -599 417 -99 59 -252
153 -340 208 -129 81 -346 197 -368 197 -12 0 -183 104 -332 202 -88 57 -216
133 -285 169 -184 94 -232 145 -340 359 -46 91 -101 194 -123 230 -21 36 -66
115 -98 175 -41 78 -76 128 -120 173 -61 62 -62 63 -55 109 3 25 10 51 14 57
4 6 14 29 21 51 7 22 16 49 21 60 68 162 123 349 135 455 8 74 19 107 43 134
12 12 17 36 18 75 1 112 22 213 54 258 33 45 50 103 31 103 -6 0 -16 -9 -23
-20 -22 -34 -38 -24 -38 23 1 55 18 236 26 259 4 13 15 18 38 18 44 0 63 22
48 55 -9 19 -19 25 -45 25 -32 0 -35 3 -39 38 -5 35 18 152 35 180 5 6 19 12
32 12 22 0 24 3 18 30 -3 20 0 37 9 48 12 14 68 118 68 126 0 2 -11 15 -24 31
-35 41 -37 70 -16 195 11 62 20 133 20 159 0 44 15 155 46 346 9 50 22 142 30
205 8 63 23 165 33 225 43 250 43 251 32 309 -6 31 -33 115 -61 185 -28 71
-55 154 -60 184 -5 31 -14 65 -19 76 -6 11 -11 27 -11 36 0 25 -48 116 -78
147 -14 16 -57 47 -94 69 -38 23 -73 50 -78 59 -6 11 -27 20 -54 24 -55 9 -62
17 -71 84 -4 29 -12 57 -19 62 -6 5 -32 27 -59 49 -49 41 -86 56 -170 66 -35
5 -59 15 -85 39 -96 86 -270 183 -402 225 -170 53 -259 64 -550 66 -151 1
-288 4 -305 7 -16 3 -43 3 -60 1z m378 -1910 c5 -3 3 -9 -4 -13 -12 -8 -55 5
-74 23 -10 10 62 0 78 -10z m-223 -38 c8 -5 35 -12 60 -16 25 -3 81 -16 125
-28 59 -16 94 -20 135 -15 47 5 71 1 160 -30 91 -30 117 -35 193 -34 97 1 117
13 117 69 0 15 6 29 13 32 19 7 60 -12 54 -26 -26 -71 -14 -75 44 -12 25 27
50 45 64 45 14 0 52 -28 104 -77 74 -70 97 -103 71 -103 -15 0 5 -34 47 -81
29 -32 32 -40 19 -45 -23 -9 -20 -40 6 -58 12 -9 41 -16 64 -16 39 0 47 -6
151 -107 61 -60 118 -122 126 -138 12 -24 17 -85 21 -278 2 -136 7 -250 10
-255 7 -12 37 -239 45 -342 3 -47 3 -107 -1 -135 -4 -27 -10 -81 -13 -120 -3
-38 -12 -106 -20 -151 -8 -44 -17 -120 -20 -170 -7 -125 -15 -187 -26 -198 -5
-6 -9 -20 -9 -32 0 -12 -7 -38 -16 -59 -8 -21 -13 -43 -10 -50 2 -7 -2 -22
-10 -34 -8 -12 -13 -25 -10 -30 3 -4 -1 -17 -9 -27 -8 -10 -15 -28 -15 -38 0
-21 -72 -176 -81 -176 -3 0 -26 -19 -52 -42 -54 -51 -94 -132 -75 -155 9 -11
9 -16 -3 -24 -8 -5 -19 -7 -26 -4 -11 4 -55 -73 -52 -91 1 -5 -2 -19 -6 -32
-7 -21 -8 -21 -21 -5 -12 17 -13 17 -19 0 -4 -9 -2 -24 5 -32 8 -10 9 -19 3
-27 -5 -7 -20 -38 -32 -69 -22 -55 -60 -95 -136 -144 -16 -10 -36 -25 -43 -32
-7 -7 -21 -13 -30 -13 -10 0 -25 -8 -33 -17 -24 -26 -45 -42 -136 -101 -24
-15 -43 -31 -43 -36 0 -21 -51 -74 -77 -81 -15 -3 -37 -15 -48 -24 -11 -10
-31 -21 -45 -24 -61 -13 -74 -17 -83 -26 -5 -5 -31 -7 -57 -4 -32 4 -56 0 -78
-11 -17 -9 -44 -16 -60 -16 -16 0 -35 -7 -42 -14 -19 -23 -72 -37 -161 -41
-67 -3 -87 -1 -101 12 -10 9 -37 18 -60 19 -69 6 -118 16 -124 25 -3 5 -14 9
-24 9 -10 0 -25 8 -32 18 -10 14 -27 18 -70 19 -52 1 -60 5 -93 40 -20 21 -43
50 -50 64 -8 15 -21 29 -30 32 -8 4 -15 11 -15 17 0 6 -38 48 -85 95 -47 46
-85 91 -85 100 0 26 -97 118 -116 111 -11 -4 -23 2 -33 16 -32 45 -65 109 -76
146 -4 13 -14 22 -25 22 -25 0 -43 34 -36 68 4 19 -3 45 -24 86 -16 32 -30 64
-30 71 0 6 -9 20 -20 30 -11 10 -20 26 -20 37 0 15 -6 30 -27 67 -2 2 -9 -2
-17 -8 -25 -21 -39 -3 -32 40 6 36 4 39 -17 39 -20 0 -27 10 -46 65 -15 41
-21 75 -17 91 4 16 1 35 -8 49 -10 15 -17 58 -20 119 -3 58 -11 105 -20 118
-8 13 -14 44 -15 69 0 25 -7 66 -15 90 -56 169 -75 534 -41 774 8 61 18 221
22 356 7 293 13 314 98 360 31 17 51 35 53 48 2 12 7 21 11 21 13 0 81 70 81
84 0 8 4 17 9 20 10 6 38 62 65 129 10 25 21 37 34 37 21 0 32 18 32 55 0 16
9 27 28 34 15 7 45 22 67 36 27 16 58 24 95 26 50 1 52 2 20 9 -56 11 -10 24
53 15 29 -4 76 -10 106 -14 l55 -6 -37 -27 c-19 -16 -40 -28 -45 -28 -5 0 -27
-13 -48 -28 -53 -38 -107 -62 -137 -62 -14 0 -29 -4 -32 -10 -3 -5 -17 -10
-31 -10 -13 0 -24 5 -24 10 0 12 -57 13 -64 2 -5 -9 14 -21 71 -42 44 -17 159
-8 208 15 22 10 52 33 67 51 45 52 197 149 238 151 19 1 47 7 61 15 31 16 305
19 329 3z m-674 -3704 c-1 -9 19 -26 48 -41 27 -14 52 -32 54 -40 11 -34 45
-72 62 -67 22 6 46 -51 25 -59 -11 -5 -8 -14 12 -45 14 -21 30 -39 34 -39 5 0
9 -9 9 -20 0 -12 7 -20 18 -21 16 -1 16 -2 -1 -6 -26 -7 -16 -25 22 -44 32
-15 32 -16 16 -33 -11 -11 -20 -14 -24 -7 -13 20 -60 31 -86 19 -26 -12 -57 3
-52 25 1 6 -8 13 -20 15 -12 2 -27 10 -33 18 -7 8 -19 14 -27 14 -7 0 -16 7
-19 15 -4 8 -12 15 -20 15 -8 0 -14 7 -14 15 0 8 -9 24 -19 34 -14 14 -16 22
-8 30 8 8 8 11 -1 11 -7 0 -20 18 -29 39 -11 24 -28 44 -47 53 -26 12 -30 18
-29 57 0 25 5 47 11 49 17 5 15 22 -3 22 -8 0 -15 5 -15 10 0 6 5 10 11 10 6
0 17 6 24 14 12 11 21 10 58 -7 26 -12 44 -27 43 -36z m1760 -65 c1 -41 -2
-45 -33 -57 -30 -11 -32 -15 -18 -25 14 -11 14 -12 -2 -19 -17 -6 -17 -7 0
-20 10 -7 17 -17 16 -21 -1 -5 1 -17 6 -27 5 -13 1 -25 -13 -40 l-22 -21 22
-23 c18 -19 19 -23 5 -23 -8 0 -22 -13 -31 -30 -18 -37 -12 -37 44 0 25 16 53
30 63 30 9 0 17 5 17 10 0 6 -12 10 -27 10 -24 1 -25 2 -10 11 9 5 17 17 17
24 0 9 9 15 23 14 16 -1 18 -2 5 -6 -21 -5 -22 -7 -5 -35 18 -33 40 -49 60
-44 9 2 17 0 17 -5 0 -5 7 -9 15 -9 9 0 18 -7 21 -15 4 -8 14 -15 24 -15 10 0
22 -9 25 -20 3 -11 12 -20 18 -20 17 0 37 -70 27 -91 -6 -10 -4 -23 4 -35 11
-15 12 -40 5 -113 -5 -52 -11 -103 -15 -113 -3 -10 0 -25 6 -33 10 -12 10 -18
-1 -31 -10 -12 -10 -20 -1 -34 9 -15 7 -37 -9 -102 -11 -46 -27 -93 -35 -105
-8 -12 -14 -28 -14 -34 0 -7 -13 -39 -29 -73 -31 -66 -57 -137 -65 -176 -3
-14 -20 -40 -37 -58 -52 -53 -149 -122 -173 -122 -13 0 -25 -10 -33 -27 -7
-16 -29 -46 -48 -68 -20 -22 -54 -64 -77 -92 -22 -29 -44 -53 -49 -53 -5 0
-33 -24 -62 -53 -28 -29 -82 -75 -119 -102 -38 -27 -68 -51 -68 -55 0 -3 -10
-16 -23 -30 -26 -29 -119 -154 -165 -221 -16 -25 -37 -51 -45 -58 -19 -15 -22
-5 -37 94 -5 39 -23 124 -40 190 -26 103 -49 156 -156 370 -69 138 -133 258
-143 268 -18 18 -20 18 -88 -2 -88 -26 -117 -26 -154 0 -40 28 -98 154 -106
230 -6 56 -4 61 29 104 l35 44 -19 93 c-11 51 -26 100 -33 108 -23 27 -45 106
-49 172 -1 22 -10 46 -24 61 -12 13 -22 28 -22 34 0 17 29 24 51 12 42 -22 85
17 92 82 3 26 9 35 27 37 31 5 47 -13 30 -33 -9 -11 -10 -19 -3 -23 5 -4 15
-17 22 -29 13 -26 44 -32 35 -8 -4 8 -2 15 4 15 5 0 23 12 40 28 39 37 78 38
171 6 66 -23 90 -26 186 -24 60 1 117 2 125 2 31 0 90 19 90 29 0 6 4 8 9 4
15 -9 101 18 101 31 0 8 13 10 40 7 31 -4 51 1 99 26 33 17 67 31 76 31 9 0
15 6 14 13 -3 30 14 56 43 62 22 5 27 10 19 18 -16 16 -13 37 5 37 9 0 18 9
21 20 3 10 14 22 24 25 12 4 19 16 19 31 0 13 5 24 10 24 6 0 10 6 10 14 0 7
12 22 26 32 14 10 42 31 61 46 19 15 40 25 47 22 7 -3 23 -1 37 4 41 16 64 -3
65 -52z"/>
<path d="M6356 8385 c-3 -9 0 -15 8 -15 8 0 16 7 20 15 3 9 0 15 -8 15 -8 0
-16 -7 -20 -15z"/>
<path d="M6298 7739 c-10 -15 -26 -23 -54 -24 -27 -2 -40 -8 -42 -19 -3 -11
-14 -16 -42 -16 -21 0 -50 -4 -64 -10 -13 -5 -46 -10 -73 -11 -26 -1 -85 -10
-131 -20 -45 -11 -93 -19 -106 -19 -29 0 -56 -28 -38 -39 8 -5 4 -19 -15 -46
-35 -53 -33 -51 -42 -36 -13 20 -31 4 -31 -28 0 -30 22 -57 39 -47 5 4 12 2
15 -3 3 -5 -11 -16 -32 -24 -35 -15 -118 -105 -116 -127 1 -6 2 -19 3 -30 1
-16 8 -20 35 -20 18 0 46 4 62 9 16 5 48 12 72 15 l44 6 -41 -48 c-52 -62 -54
-84 -6 -80 20 2 35 8 35 13 -1 6 -8 9 -16 9 -32 -4 -21 6 144 129 18 14 39 -8
46 -46 4 -19 21 -48 41 -67 32 -31 40 -33 91 -32 65 2 84 14 115 78 22 46 35
52 72 33 27 -15 38 -30 32 -46 -2 -7 8 -22 22 -33 22 -17 35 -20 72 -14 25 3
57 13 71 22 14 9 36 21 49 28 l24 13 -30 18 c-24 14 -28 21 -20 34 30 47 -112
110 -243 108 l-65 -1 60 -13 c65 -13 93 -23 112 -38 24 -18 2 -26 -35 -12
-102 40 -234 50 -359 28 -21 -3 -33 -1 -33 6 0 6 10 11 22 11 19 0 62 11 108
28 8 3 -24 9 -72 12 -48 3 -89 8 -93 11 -13 14 10 39 53 57 129 55 197 73 282
74 65 0 100 6 147 24 34 13 74 24 90 24 32 -1 62 -20 56 -37 -6 -17 45 -63 70
-63 12 0 35 -7 51 -15 40 -21 55 -13 52 27 -4 55 -34 111 -87 160 -39 36 -66
51 -122 67 -40 12 -80 26 -89 31 -31 17 -74 12 -90 -11z m-418 -424 c0 -8 -6
-15 -12 -15 -7 0 -24 -9 -38 -20 -14 -11 -31 -20 -39 -20 -8 0 8 16 35 35 57
40 54 39 54 20z m200 -45 c11 -7 7 -10 -18 -10 -20 0 -31 4 -27 10 8 13 26 13
45 0z"/>
<path d="M4235 7710 c-79 -29 -134 -64 -161 -103 -20 -30 -24 -48 -24 -106 0
-38 -4 -73 -10 -76 -19 -11 -10 -25 16 -25 14 0 23 4 19 10 -3 5 13 14 35 21
22 7 40 16 40 20 0 4 13 11 28 17 36 12 330 6 397 -9 86 -19 125 -32 136 -46
12 -14 9 -16 -46 -28 l-30 -7 40 -14 c22 -7 50 -14 63 -14 12 0 22 -3 22 -7 0
-5 -53 -8 -117 -8 -65 -1 -136 -4 -158 -8 -22 -4 -33 -5 -25 -1 8 3 22 8 30
12 8 3 40 11 70 18 l55 11 -91 2 c-97 1 -225 -20 -284 -48 -42 -19 -54 -64
-23 -87 17 -12 17 -13 1 -14 -22 0 -23 -23 -3 -40 8 -7 15 -18 15 -26 0 -7 10
-15 23 -19 12 -3 48 -18 80 -32 l57 -27 20 22 c12 12 31 22 43 23 l22 0 -23
11 c-12 6 -25 23 -29 36 -5 20 1 31 26 54 43 39 67 37 81 -8 7 -20 26 -51 42
-70 33 -37 69 -43 140 -24 32 9 40 19 65 71 26 56 30 60 56 55 28 -6 107 -63
107 -78 0 -4 7 -8 15 -8 8 0 15 -5 15 -11 0 -7 -9 -9 -21 -6 -23 6 -49 -1 -49
-13 0 -10 67 -20 86 -13 23 9 16 35 -22 83 -34 43 -35 45 -14 48 12 2 31 -4
43 -12 98 -71 98 -72 113 -51 30 40 18 73 -52 143 -37 36 -68 75 -69 86 -1 12
-3 27 -4 34 -2 25 -83 100 -129 120 -27 12 -80 26 -118 31 -38 6 -85 15 -104
20 -94 25 -148 34 -182 32 -32 -1 -38 1 -38 19 0 14 -7 20 -23 20 -13 0 -32 9
-42 20 -22 24 -44 24 -110 0z m182 -406 c-3 -3 -12 -4 -19 -1 -8 3 -5 6 6 6
11 1 17 -2 13 -5z"/>
<path d="M5555 6316 c-37 -16 -92 -62 -106 -88 -10 -19 -9 -20 17 -13 16 4 46
7 66 6 21 -1 48 4 60 10 13 7 39 15 58 18 38 7 53 38 28 58 -22 18 -91 23
-123 9z"/>
<path d="M5015 6308 c-44 -25 -49 -63 -7 -54 18 4 37 0 57 -14 17 -11 47 -20
70 -20 37 0 48 -4 104 -38 65 -39 -29 66 -98 110 -47 29 -92 35 -126 16z"/>
<path d="M5317 6173 c-30 -3 -47 -8 -44 -16 6 -18 54 -26 92 -14 36 11 49 38
18 35 -10 -1 -40 -3 -66 -5z"/>
<path d="M5054 6065 c-10 -8 -29 -15 -40 -15 -27 0 -193 -86 -211 -108 -8 -10
-11 -30 -8 -48 6 -36 1 -44 -26 -37 -16 5 -19 11 -14 34 7 33 -5 37 -45 14
-14 -8 -39 -14 -55 -15 -42 0 -98 -41 -124 -90 -24 -47 -26 -66 -8 -103 15
-33 32 -34 53 -3 19 31 88 68 110 59 10 -4 14 -13 10 -28 -7 -27 7 -40 54 -50
19 -4 44 -14 55 -21 30 -21 72 -17 90 9 20 28 65 28 268 -1 158 -22 147 -23
382 19 154 27 241 23 221 -9 -3 -5 0 -15 8 -21 15 -13 94 10 138 40 14 11 31
19 36 19 25 0 21 22 -10 50 -29 27 -31 31 -17 45 14 14 20 12 59 -17 23 -18
50 -38 59 -45 9 -6 30 -13 46 -15 29 -3 30 -1 33 37 2 34 -3 49 -33 88 -37 48
-76 67 -144 67 l-33 0 6 -44 7 -43 -56 -27 c-55 -27 -56 -27 -161 -17 -58 6
-109 13 -113 15 -4 3 -23 -5 -42 -18 -48 -32 -95 -46 -130 -39 -16 3 -49 0
-73 -7 -37 -10 -48 -9 -77 5 -19 10 -40 22 -48 28 -21 18 -83 37 -118 37 -18
0 -58 -7 -90 -15 -31 -8 -81 -15 -110 -15 -49 0 -53 1 -44 19 11 20 78 51 111
51 11 0 28 4 38 9 9 6 34 13 54 16 21 3 51 17 67 30 16 14 35 25 43 25 22 0
38 22 38 53 0 35 24 32 28 -4 9 -70 45 -99 99 -78 28 10 29 23 5 41 -9 7 -26
27 -36 43 -27 44 -57 65 -92 65 -17 0 -37 7 -44 15 -16 19 -90 20 -116 0z
m-224 -301 c0 -2 -9 -4 -19 -4 -23 0 -35 28 -20 46 10 12 14 10 25 -12 8 -14
14 -28 14 -30z m397 -20 c-3 -3 -12 -4 -19 -1 -8 3 -5 6 6 6 11 1 17 -2 13 -5z"/>
<path d="M5409 6045 c-52 -26 -66 -49 -43 -67 9 -7 27 -23 40 -35 28 -26 44
-29 62 -11 9 9 15 8 25 -5 9 -13 29 -18 77 -20 36 -2 73 -7 82 -11 11 -5 23
-1 37 13 12 12 27 21 35 21 19 0 76 -51 76 -68 0 -9 10 -11 38 -6 49 9 56 17
45 50 -11 32 -50 47 -101 40 -27 -4 -35 -1 -43 18 -12 25 -71 51 -109 48 -17
-2 -34 7 -53 28 -34 36 -43 37 -58 9 l-11 -21 -14 21 c-18 26 -26 25 -85 -4z"/>
<path d="M6535 5740 c3 -5 8 -10 11 -10 2 0 4 5 4 10 0 6 -5 10 -11 10 -5 0
-7 -4 -4 -10z"/>
<path d="M5194 5385 c-10 -16 -26 -25 -43 -25 -35 -1 -74 -32 -69 -56 2 -11
19 -25 45 -34 46 -17 83 -46 83 -67 0 -7 9 -13 20 -13 31 0 120 37 144 59 12
12 39 22 59 23 27 2 37 8 37 20 0 9 10 24 23 33 22 16 22 16 -13 14 -41 -3
-76 14 -85 40 -4 14 -19 20 -67 25 -102 10 -116 8 -134 -19z"/>
<path d="M6255 4809 c-4 -6 -5 -13 -2 -16 7 -7 27 6 27 18 0 12 -17 12 -25 -2z"/>
<path d="M6300 4771 c0 -11 26 -22 34 -14 3 3 3 10 0 14 -7 12 -34 11 -34 0z"/>
<path d="M6145 4730 c-3 -5 -2 -10 4 -10 5 0 13 5 16 10 3 6 2 10 -4 10 -5 0
-13 -4 -16 -10z"/>
<path d="M6495 4460 c-3 -5 -1 -10 4 -10 6 0 11 5 11 10 0 6 -2 10 -4 10 -3 0
-8 -4 -11 -10z"/>
<path d="M6340 4395 c0 -8 4 -15 9 -15 5 0 14 7 21 15 10 13 9 15 -9 15 -12 0
-21 -6 -21 -15z"/>
<path d="M4956 4243 c11 -2 41 -22 65 -44 50 -46 108 -79 139 -79 18 0 19 2 8
20 -7 11 -18 20 -24 20 -6 0 -23 9 -37 20 -14 11 -32 20 -40 20 -9 0 -29 11
-45 25 -18 15 -41 24 -58 24 -21 -1 -23 -3 -8 -6z"/>
<path d="M5150 4179 c0 -5 5 -7 10 -4 6 3 10 8 10 11 0 2 -4 4 -10 4 -5 0 -10
-5 -10 -11z"/>
<path d="M8742 8355 c1 -10 -3 -20 -10 -22 -8 -3 -10 1 -5 13 4 11 3 15 -5 10
-6 -4 -8 -21 -5 -41 5 -30 3 -34 -11 -29 -9 3 -14 10 -11 14 11 17 -20 26 -45
13 -25 -14 -24 -14 10 -9 32 4 34 4 16 -10 -19 -14 -19 -14 5 -15 l24 0 -24
-10 c-16 -6 -28 -6 -40 3 -14 11 -14 11 -3 -3 9 -12 25 -16 53 -14 26 2 39 -1
36 -9 -5 -14 -90 -11 -95 4 -2 5 -13 15 -25 22 -22 11 -22 11 -3 -11 11 -11
15 -21 10 -21 -5 0 -1 -5 9 -11 9 -5 22 -7 27 -4 6 3 7 -1 4 -10 -5 -11 -10
-13 -19 -5 -7 6 -17 9 -21 8 -5 -2 -10 1 -11 6 -1 10 -31 29 -48 32 -6 1 -12
-11 -13 -27 -2 -21 1 -27 12 -23 8 3 17 0 21 -6 3 -6 1 -9 -6 -8 -9 2 -12 -9
-11 -37 1 -33 0 -36 -8 -18 -6 15 -15 21 -25 17 -13 -5 -13 -9 -3 -22 11 -13
11 -14 -2 -7 -8 5 -21 11 -27 12 -7 2 -21 5 -30 7 -10 2 -17 10 -15 17 3 11 1
12 -9 2 -16 -16 -33 -17 -24 -3 4 6 1 9 -7 8 -7 -2 -12 3 -10 10 1 8 -2 11 -8
7 -8 -5 -7 -11 1 -21 9 -11 8 -14 -4 -14 -8 0 -17 -9 -20 -20 -3 -13 -1 -18 6
-13 8 4 8 2 0 -9 -7 -8 -9 -19 -5 -24 4 -4 -1 -2 -11 6 -10 7 -29 14 -42 15
-23 1 -23 -1 -8 -17 17 -19 28 -24 18 -8 -3 6 1 7 9 4 25 -10 19 -23 -9 -19
-17 1 -25 -3 -26 -14 0 -9 -7 -3 -14 14 -8 17 -14 24 -15 18 0 -7 -4 -13 -9
-13 -6 0 -8 10 -6 21 3 12 1 18 -3 15 -4 -4 -7 -13 -7 -19 0 -7 -8 -11 -17 -9
-9 1 -19 -2 -23 -8 -4 -6 1 -7 12 -3 16 6 16 4 -2 -16 -11 -12 -27 -20 -36
-18 -12 3 -16 0 -12 -10 6 -15 -17 -14 -30 2 -4 6 -5 -2 -3 -17 3 -16 0 -28
-5 -28 -6 0 -7 -6 -3 -12 4 -7 4 -10 -1 -6 -4 4 -15 2 -23 -5 -13 -10 -14 -9
-4 10 11 19 9 24 -9 33 -11 7 -23 9 -26 7 -2 -3 5 -8 16 -12 17 -5 19 -10 11
-25 -10 -19 -3 -53 9 -45 4 2 8 -2 8 -9 0 -11 -4 -12 -18 -3 -10 6 -17 13 -17
16 2 21 -4 31 -13 25 -6 -3 -9 -15 -6 -25 3 -10 -1 -23 -8 -29 -11 -9 -12 -5
-8 22 3 18 2 30 -1 27 -5 -5 -14 -41 -15 -66 -2 -20 -48 -9 -71 17 -12 14 -19
19 -15 13 3 -7 1 -13 -4 -13 -6 0 -11 -5 -11 -10 0 -6 -12 -24 -27 -41 -16
-17 -27 -36 -25 -42 2 -6 -5 -3 -16 6 -15 14 -22 15 -28 6 -4 -8 -3 -10 4 -5
7 4 12 2 12 -3 0 -6 -5 -11 -11 -11 -5 0 -7 -5 -4 -11 4 -6 13 -8 21 -5 7 3
16 1 19 -5 4 -5 3 -9 -2 -8 -4 1 -19 0 -33 -1 l-25 -2 25 -7 25 -7 -28 -7
c-15 -4 -25 -12 -22 -17 3 -6 1 -10 -4 -10 -13 0 -14 17 -2 24 10 7 9 25 -2
44 -5 7 -4 12 2 12 6 0 11 5 11 12 0 7 -10 3 -22 -9 -18 -18 -19 -24 -8 -37
11 -15 7 -20 -13 -17 -4 1 -10 -6 -13 -14 -4 -8 -11 -15 -17 -15 -8 0 -8 3 0
11 6 6 9 19 6 28 -4 14 -3 14 6 1 9 -13 11 -13 11 1 0 29 -26 29 -28 1 -1 -14
-6 -30 -12 -37 -5 -6 -9 -14 -7 -16 1 -2 -5 3 -13 11 -8 8 -14 14 -14 12 1 -2
-9 -15 -22 -29 -27 -29 -25 -44 3 -22 16 13 17 12 5 -2 -7 -9 -10 -24 -6 -33
3 -9 1 -16 -6 -16 -6 0 -9 4 -6 9 3 5 -1 15 -10 22 -13 10 -17 10 -25 -2 -6
-10 -9 -10 -9 -1 0 6 -7 12 -16 12 -14 0 -14 -3 -4 -15 13 -15 8 -19 -21 -16
-29 3 -38 -20 -26 -72 7 -26 16 -46 22 -43 6 2 9 -25 7 -75 -2 -47 0 -79 6
-79 6 0 7 -14 1 -37 -5 -21 -9 -71 -9 -110 0 -40 -4 -73 -8 -73 -5 0 -9 -24
-11 -52 -1 -29 -6 -66 -11 -83 -19 -66 -30 -127 -30 -165 0 -21 -4 -42 -10
-45 -5 -3 -10 -17 -10 -30 0 -13 -4 -27 -10 -30 -5 -3 -10 -17 -10 -30 0 -13
-4 -27 -10 -30 -5 -3 -10 -15 -10 -26 0 -10 -4 -27 -9 -37 -5 -9 -21 -48 -36
-86 -53 -138 -122 -216 -232 -261 -66 -26 -67 -28 -83 -110 -13 -68 -57 -208
-105 -340 -51 -137 -51 -134 -11 -185 19 -25 54 -83 79 -130 24 -47 54 -102
65 -122 12 -21 32 -55 43 -75 12 -21 29 -49 39 -63 10 -14 47 -86 84 -161 91
-189 109 -206 328 -328 101 -57 199 -113 218 -126 19 -14 53 -37 75 -52 40
-28 112 -73 195 -122 25 -15 83 -44 130 -64 98 -44 224 -117 395 -227 66 -43
165 -104 220 -135 55 -32 136 -80 180 -109 43 -28 87 -55 96 -61 9 -5 49 -33
90 -61 41 -28 97 -66 124 -84 28 -19 77 -58 109 -87 33 -29 64 -53 71 -53 6 0
37 65 68 144 144 363 235 714 289 1123 20 149 22 211 22 553 0 342 -2 404 -22
553 -104 786 -375 1472 -826 2094 -56 78 -87 113 -101 113 -15 0 -16 3 -7 9
10 6 2 21 -33 62 -25 30 -54 54 -63 55 -31 2 -33 4 -21 25 6 12 7 19 1 16 -5
-4 -15 6 -21 20 -10 21 -14 24 -21 13 -7 -12 -11 -12 -25 0 -15 12 -16 12 -13
-5z m55 -35 c2 -11 -2 -20 -8 -20 -5 0 -7 5 -4 10 9 15 -2 12 -31 -7 -25 -16
-26 -16 -23 2 4 19 48 49 58 39 3 -2 6 -13 8 -24z m-34 -63 c3 -8 -1 -14 -9
-14 -15 0 -18 9 -7 20 9 9 10 9 16 -6z m-183 -28 c0 -5 -7 -9 -15 -9 -15 0
-20 12 -9 23 8 8 24 -1 24 -14z m205 -11 c5 4 5 2 2 -5 -6 -9 -18 -10 -45 -4
-2 1 0 6 3 11 5 8 11 8 19 1 7 -6 17 -7 21 -3z m35 -18 c0 -5 -2 -10 -4 -10
-3 0 -8 5 -11 10 -3 6 -1 10 4 10 6 0 11 -4 11 -10z m56 -24 c-28 -23 -48 -27
-62 -13 -4 3 2 5 13 3 10 -2 30 4 44 15 35 27 39 23 5 -5z m-275 -11 c10 2 16
-4 15 -14 -1 -18 -34 -46 -43 -37 -4 3 -1 6 6 6 7 0 9 5 4 13 -10 16 -15 56
-6 41 5 -6 15 -10 24 -9z m66 2 c0 -8 -6 -14 -14 -14 -9 0 -10 4 -2 14 6 7 12
13 14 13 1 0 2 -6 2 -13z m58 -17 c3 -6 -1 -7 -9 -4 -18 7 -21 14 -7 14 6 0
13 -4 16 -10z m-277 -10 c1 -2 7 -3 12 -4 15 -2 12 -21 -2 -21 -7 -1 -17 4
-21 10 -6 7 -10 6 -14 -3 -2 -7 -11 -18 -18 -26 -8 -7 -11 -17 -7 -21 4 -5 2
-5 -5 -1 -13 7 -7 36 8 36 5 0 9 5 9 10 0 6 -3 9 -7 9 -19 -3 -27 2 -15 9 11
7 52 8 60 2z m456 -8 c3 -5 -1 -9 -9 -9 -8 0 -12 4 -9 9 3 4 7 8 9 8 2 0 6 -4
9 -8z m-459 -71 c2 -12 0 -19 -6 -16 -5 4 -7 11 -4 16 4 5 2 9 -3 9 -5 0 -9 7
-9 15 0 22 17 4 22 -24z m245 35 c0 -3 -4 -8 -10 -11 -5 -3 -10 -1 -10 4 0 6
5 11 10 11 6 0 10 -2 10 -4z m-445 -45 c-3 -6 -11 -11 -17 -11 -6 0 -6 6 2 15
14 17 26 13 15 -4z m114 -12 c-19 -12 -24 -2 -8 17 9 11 14 13 17 4 3 -7 -2
-16 -9 -21z m-81 4 c-2 -12 2 -17 12 -15 11 3 11 -1 -3 -16 -20 -22 -47 -25
-47 -5 0 8 4 12 9 8 5 -3 12 -1 16 5 3 5 1 10 -5 10 -7 0 -6 5 2 15 17 19 19
18 16 -2z m142 11 c0 -8 -19 -13 -24 -6 -3 5 1 9 9 9 8 0 15 -2 15 -3z m-190
-32 c0 -4 -12 -8 -27 -9 -24 -1 -25 -1 -8 7 26 11 35 12 35 2z m163 -12 c-3
-11 -10 -23 -17 -27 -15 -10 -40 -13 -31 -5 4 4 12 7 18 7 7 0 12 5 12 10 0
11 14 35 20 35 2 0 1 -9 -2 -20z m-80 -20 c-14 -16 -29 -30 -31 -30 -3 0 2 8
11 18 10 10 17 24 17 30 0 7 7 12 15 12 11 0 8 -8 -12 -30z m286 16 c11 -14 6
-15 -27 -7 -4 1 8 21 12 21 2 0 9 -6 15 -14z m-430 -17 c-15 -9 -32 -2 -24 11
3 5 13 6 21 3 12 -4 13 -8 3 -14z m21 -19 c0 -5 6 -7 14 -4 8 3 17 1 20 -4 3
-6 -1 -13 -10 -16 -8 -3 -12 -11 -8 -17 5 -8 3 -9 -5 -5 -7 5 -10 11 -7 14 3
3 -1 14 -11 24 -9 11 -11 18 -5 18 7 0 12 -4 12 -10z m225 0 c3 -5 1 -10 -4
-10 -6 0 -11 5 -11 10 0 6 2 10 4 10 3 0 8 -4 11 -10z m-270 -31 c-2 -20 0
-29 8 -26 7 2 11 14 11 26 -2 30 15 13 18 -19 2 -17 -1 -24 -11 -22 -7 1 -20
-3 -29 -10 -13 -11 -15 -10 -9 4 3 9 1 18 -4 20 -7 2 -6 13 2 31 16 35 19 34
14 -4z m105 -24 c0 -2 -6 -8 -13 -14 -10 -8 -14 -7 -14 2 0 8 6 14 14 14 7 0
13 -1 13 -2z m-155 -25 c10 -11 16 -20 13 -20 -3 0 -13 9 -23 20 -10 11 -16
20 -13 20 3 0 13 -9 23 -20z m-156 -28 c-11 -14 -11 -15 1 -4 19 16 30 15 30
-2 0 -10 -9 -14 -27 -12 -39 5 -40 5 -23 16 8 5 16 14 16 20 3 21 6 25 11 12
3 -7 -1 -20 -8 -30z m436 28 c3 -5 1 -10 -4 -10 -6 0 -11 5 -11 10 0 6 2 10 4
10 3 0 8 -4 11 -10z m-340 -30 c-4 -11 -2 -20 4 -20 6 0 11 4 11 9 0 5 10 11
23 14 20 6 21 5 4 -8 -14 -10 -15 -14 -5 -18 7 -2 5 -3 -4 -2 -10 2 -21 -1
-24 -7 -3 -5 -12 -1 -20 9 -9 11 -13 13 -12 4 2 -7 -4 -15 -13 -16 -12 -2 -15
3 -12 16 3 10 14 19 24 19 11 0 19 5 19 10 0 6 3 10 6 10 3 0 2 -9 -1 -20z
m84 -13 c8 -10 7 -14 -2 -14 -8 0 -14 6 -14 14 0 7 1 13 2 13 2 0 8 -6 14 -13z
m85 -8 c-3 -5 -10 -7 -15 -3 -5 3 -7 10 -3 15 3 5 10 7 15 3 5 -3 7 -10 3 -15z
m47 4 c12 -16 12 -17 -2 -6 -9 7 -20 9 -24 5 -5 -4 -5 -1 -1 6 9 16 11 15 27
-5z m-276 -36 c19 -4 19 -5 -1 -6 -12 0 -28 7 -35 17 -12 15 -12 16 1 6 8 -7
24 -14 35 -17z m228 -14 c-3 -7 -6 -13 -8 -13 -2 0 -5 6 -8 13 -3 8 1 14 8 14
7 0 11 -6 8 -14z m-268 -13 c3 -5 1 -10 -4 -10 -6 0 -11 5 -11 10 0 6 2 10 4
10 3 0 8 -4 11 -10z m193 -8 c2 -6 -5 -10 -16 -9 -10 0 -19 6 -19 13 0 15 30
11 35 -4z m152 -2 c12 -7 10 -9 -8 -7 -12 0 -22 5 -22 9 0 11 12 10 30 -2z
m-100 -15 c-7 -9 -15 -13 -19 -10 -3 3 1 10 9 15 21 14 24 12 10 -5z m-310
-25 c-8 -5 -19 -10 -25 -10 -5 0 -3 5 5 10 8 5 20 10 25 10 6 0 3 -5 -5 -10z
m-120 -30 c0 -10 -20 -24 -35 -26 -5 0 -18 8 -27 18 -19 19 -10 26 9 7 13 -13
36 -3 28 12 -3 5 1 6 9 3 9 -3 16 -10 16 -14z m116 -15 c-1 -8 -5 -17 -8 -21
-5 -4 -4 16 1 34 3 9 9 -1 7 -13z m269 -13 c-3 -3 -11 0 -18 7 -9 10 -8 11 6
5 10 -3 15 -9 12 -12z m-408 -26 c0 -8 -6 -12 -14 -9 -7 3 -10 9 -7 14 8 14
21 11 21 -5z m-112 -26 c-3 -5 0 -10 7 -10 9 0 9 -3 -2 -10 -11 -7 -11 -10 -2
-10 7 0 10 -5 7 -11 -9 -14 -15 -7 -21 25 -2 15 0 26 6 26 6 0 8 -4 5 -10z
m52 -6 c-3 -3 -12 -4 -19 -1 -8 3 -5 6 6 6 11 1 17 -2 13 -5z m106 -65 c-8 -8
-13 -7 -18 2 -5 8 -4 10 3 5 7 -4 12 -2 12 5 0 7 3 9 7 6 4 -4 2 -12 -4 -18z
m-148 -17 c-3 -3 -11 0 -18 7 -9 10 -8 11 6 5 10 -3 15 -9 12 -12z m98 0 c16
-17 15 -18 -14 -16 -17 1 -36 8 -43 14 -9 10 -6 10 11 1 13 -7 24 -7 28 -2 3
5 -3 12 -12 14 -15 4 -15 5 -2 6 9 0 23 -7 32 -17z m-79 -74 c-5 -8 -1 -9 12
-4 14 5 16 4 7 -5 -13 -13 -37 -3 -28 12 4 5 8 9 11 9 3 0 2 -5 -2 -12z"/>
<path d="M8585 8151 c-3 -5 -1 -12 5 -16 5 -3 10 1 10 9 0 18 -6 21 -15 7z"/>
<path d="M8483 8235 c0 -8 4 -12 9 -9 5 3 6 10 3 15 -9 13 -12 11 -12 -6z"/>
<path d="M8514 8199 c1 -21 7 -33 17 -35 15 -2 15 1 1 30 -8 17 -16 32 -17 34
-2 2 -2 -11 -1 -29z"/>
<path d="M8359 8185 c-1 -3 -2 -10 -3 -16 0 -5 -12 -19 -26 -30 -20 -15 -21
-18 -5 -12 20 7 38 28 41 51 2 11 -5 18 -7 7z"/>
<path d="M8470 8175 c-11 -13 -10 -14 5 -9 11 5 16 4 12 -3 -3 -5 0 -10 8 -10
19 0 19 11 1 26 -10 9 -16 8 -26 -4z"/>
<path d="M8275 8140 c-3 -5 -1 -10 4 -10 6 0 11 5 11 10 0 6 -2 10 -4 10 -3 0
-8 -4 -11 -10z"/>
<path d="M8053 8085 c0 -8 4 -12 9 -9 5 3 6 10 3 15 -9 13 -12 11 -12 -6z"/>
<path d="M7876 8012 c-3 -5 1 -9 9 -9 8 0 12 4 9 9 -3 4 -7 8 -9 8 -2 0 -6 -4
-9 -8z"/>
<path d="M8023 8000 c-29 -12 -30 -20 -1 -12 16 4 19 2 13 -9 -5 -8 -4 -10 0
-6 7 6 17 39 12 36 -1 0 -12 -4 -24 -9z"/>
<path d="M7975 7990 c-3 -5 -1 -10 4 -10 6 0 11 5 11 10 0 6 -2 10 -4 10 -3 0
-8 -4 -11 -10z"/>
<path d="M7996 7945 c-11 -8 -15 -15 -9 -15 6 0 16 7 23 15 16 19 11 19 -14 0z"/>
<path d="M7964 7927 c3 -10 6 -23 6 -29 0 -7 5 -6 14 1 11 9 15 9 19 -1 4 -10
6 -10 6 0 1 7 -7 16 -16 19 -10 4 -22 11 -26 17 -5 7 -6 4 -3 -7z"/>
<path d="M7817 7861 c-4 -17 -3 -21 5 -13 5 5 8 16 6 23 -3 8 -7 3 -11 -10z"/>
<path d="M7870 7850 c-8 -5 -12 -12 -9 -15 4 -3 12 1 19 10 14 17 11 19 -10 5z"/>
<path d="M7675 7841 c-3 -5 -2 -12 3 -15 5 -3 9 1 9 9 0 17 -3 19 -12 6z"/>
<path d="M7728 7843 c7 -3 16 -2 19 1 4 3 -2 6 -13 5 -11 0 -14 -3 -6 -6z"/>
<path d="M7620 7836 c0 -2 7 -7 16 -10 8 -3 12 -2 9 4 -6 10 -25 14 -25 6z"/>
<path d="M7695 7782 c3 -3 0 -10 -5 -17 -7 -8 -5 -12 5 -12 8 0 13 3 10 5 -3
3 0 10 5 17 7 8 5 12 -5 12 -8 0 -13 -3 -10 -5z"/>
<path d="M7638 7742 c9 -10 19 -14 21 -9 2 5 -3 13 -10 18 -24 15 -30 10 -11
-9z"/>
<path d="M7613 7693 c0 -15 2 -21 7 -14 4 7 10 12 14 12 16 -2 18 0 6 14 -18
22 -25 19 -27 -12z"/>
<path d="M7555 7680 c6 -10 4 -12 -8 -7 -10 3 -17 2 -17 -4 0 -6 -6 -7 -12 -3
-8 5 -7 1 2 -10 8 -11 16 -14 18 -7 2 6 10 11 18 11 17 0 19 16 2 26 -7 5 -8
3 -3 -6z"/>
<path d="M7231 7553 c-33 -40 -32 -53 4 -53 16 0 31 -10 42 -27 9 -16 18 -30
19 -31 1 -2 12 -1 24 3 19 6 21 12 15 43 -10 57 -35 102 -55 102 -10 0 -32
-17 -49 -37z"/>
<path d="M3623 7538 c-10 -13 -33 -146 -33 -190 0 -21 1 -20 29 6 24 23 29 35
24 56 -4 22 0 31 16 39 25 14 27 48 5 79 -17 25 -27 27 -41 10z"/>
<path d="M7160 6990 c0 -6 -9 -30 -20 -52 -24 -51 -24 -48 -1 -48 14 0 24 13
36 44 16 43 14 66 -6 66 -5 0 -9 -5 -9 -10z"/>
<path d="M3769 5688 c-5 -18 -6 -38 -1 -34 7 8 12 36 6 36 -2 0 -4 -1 -5 -2z"/>
<path d="M3866 5608 c5 -8 2 -9 -12 -4 -10 4 -15 4 -11 0 4 -4 2 -13 -5 -21
-8 -10 -8 -17 -1 -24 8 -8 13 -5 18 10 6 19 8 20 31 5 29 -19 31 -8 5 24 -20
23 -38 31 -25 10z"/>
<path d="M3813 5598 c-11 -19 -13 -39 -1 -32 5 3 7 9 4 12 -3 3 -1 11 5 19 6
7 9 13 6 13 -3 0 -9 -6 -14 -12z"/>
<path d="M3546 5588 c3 -5 10 -6 15 -3 13 9 11 12 -6 12 -8 0 -12 -4 -9 -9z"/>
<path d="M3646 5588 c3 -5 10 -6 15 -3 13 9 11 12 -6 12 -8 0 -12 -4 -9 -9z"/>
<path d="M3719 5595 c-1 -3 -2 -8 -3 -12 -1 -5 -5 -15 -10 -23 -7 -12 -6 -13
4 -3 13 12 23 43 14 43 -2 0 -5 -2 -5 -5z"/>
<path d="M3730 5551 c0 -4 11 -6 25 -3 14 2 25 6 25 8 0 2 -11 4 -25 4 -14 0
-25 -4 -25 -9z"/>
<path d="M3855 5550 c-4 -6 -16 -8 -28 -5 -17 5 -19 4 -7 -4 13 -10 13 -11 0
-11 -12 0 -12 -2 -2 -9 10 -6 7 -10 -13 -15 -15 -4 -30 -5 -33 -1 -3 3 3 5 14
6 18 0 18 1 -1 9 -17 7 -17 9 -2 9 9 1 17 5 17 11 0 6 -11 5 -27 -2 -32 -13
-58 -33 -30 -23 12 5 17 2 17 -10 0 -9 -4 -14 -9 -11 -5 3 -14 0 -20 -8 -6 -7
-24 -12 -40 -10 -17 2 -34 -3 -41 -12 -11 -13 -15 -13 -30 1 -16 14 -19 14
-32 1 -11 -11 -18 -12 -27 -3 -16 16 -45 19 -32 3 6 -7 7 -17 3 -22 -4 -4 0
-3 9 4 11 8 19 8 26 1 7 -7 15 -6 26 5 12 13 17 13 26 2 6 -7 7 -16 3 -21 -4
-4 2 -5 13 -3 11 2 19 10 17 18 -2 10 0 11 11 2 8 -7 18 -8 22 -4 5 4 5 1 1
-6 -5 -7 -10 -11 -13 -8 -3 2 -20 -4 -40 -15 -30 -17 -36 -18 -49 -5 -19 19
-60 3 -67 -26 -3 -11 -10 -17 -15 -14 -11 7 -10 -13 1 -31 4 -6 2 -15 -5 -19
-7 -4 -10 -4 -6 0 3 4 -3 17 -14 28 -15 15 -17 23 -8 33 8 9 8 15 0 20 -6 3
-7 11 -4 17 4 7 2 8 -4 4 -7 -4 -12 -2 -12 3 0 6 -6 11 -13 11 -8 0 -14 -6
-14 -14 0 -8 6 -12 12 -10 7 3 18 -3 26 -12 12 -16 12 -17 -4 -11 -14 5 -16 3
-9 -11 5 -9 7 -23 5 -30 -3 -7 1 -11 9 -10 7 2 12 -4 10 -14 -1 -9 2 -19 8
-23 16 -10 12 -21 -10 -22 -13 -1 -20 4 -20 15 0 15 2 15 11 2 9 -13 10 -13 6
0 -2 8 -11 15 -21 15 -9 0 -21 7 -26 15 -7 11 -10 11 -10 2 0 -7 -5 -10 -12
-6 -6 4 -9 3 -6 -2 3 -5 0 -15 -8 -22 -10 -9 -14 -10 -14 -1 0 7 -8 5 -20 -6
-14 -13 -17 -21 -9 -31 7 -8 7 -14 -1 -19 -14 -9 -30 3 -24 19 4 12 -25 27
-59 30 -4 1 -12 7 -16 15 -5 8 -11 9 -15 3 -5 -9 14 -22 30 -21 3 0 11 -7 18
-17 7 -9 18 -14 24 -10 8 5 10 2 6 -8 -7 -18 -20 -21 -28 -7 -3 5 -14 11 -23
13 -15 4 -18 -1 -17 -29 1 -18 -2 -33 -7 -33 -5 0 -8 -6 -7 -12 2 -7 -3 -12
-11 -10 -7 1 -18 -2 -25 -7 -14 -12 -41 2 -41 21 -1 7 -7 11 -15 9 -8 -3 -24
-5 -36 -5 -11 -1 -21 -6 -21 -13 0 -6 6 -9 12 -7 8 4 12 -8 11 -34 -1 -35 -3
-38 -19 -28 -9 6 -13 12 -7 14 5 2 10 9 10 14 0 6 -3 8 -7 5 -3 -4 -12 -2 -19
4 -9 8 -12 6 -9 -8 2 -10 4 -20 5 -23 1 -3 2 -9 1 -13 -1 -5 3 -6 8 -3 5 3 15
-2 22 -12 12 -15 12 -16 -2 -5 -9 7 -19 9 -23 5 -4 -4 -13 -7 -19 -7 -7 0 -12
-8 -12 -17 0 -9 -4 -20 -8 -24 -13 -13 -7 -23 11 -17 18 7 17 5 -12 -17 -13
-10 -17 -10 -12 -2 7 11 -11 17 -37 13 -5 -1 -6 3 -2 9 3 5 2 10 -4 10 -5 0
-12 -4 -15 -8 -3 -5 -19 -7 -36 -4 -23 3 -28 8 -20 17 7 8 5 12 -5 12 -8 0
-13 -3 -11 -6 2 -3 -2 -12 -10 -18 -8 -8 -15 -9 -19 -3 -8 14 -42 13 -51 -2
-5 -7 -2 -9 8 -5 9 3 21 0 27 -6 13 -13 15 -30 2 -22 -6 3 -15 -4 -21 -16
l-12 -21 -14 21 c-9 12 -20 21 -26 21 -7 0 -3 -7 8 -15 18 -14 17 -14 -10 -5
-16 6 -31 8 -34 5 -3 -3 0 -5 7 -5 7 0 10 -4 6 -9 -3 -5 0 -13 6 -17 8 -4 9
-3 5 4 -4 7 -2 12 3 12 6 0 11 -5 11 -11 0 -5 4 -8 8 -5 4 2 14 1 22 -4 11 -7
6 -9 -15 -7 -24 2 -31 -2 -33 -21 -3 -18 -8 -22 -24 -16 -17 5 -20 3 -15 -11
4 -9 7 -20 7 -23 0 -4 5 0 11 8 9 13 10 13 6 0 -2 -8 -10 -14 -16 -13 -6 2
-11 -2 -11 -7 0 -6 -6 -10 -14 -10 -7 0 -19 -7 -26 -15 -7 -8 -17 -12 -22 -9
-6 4 -14 0 -19 -7 -7 -11 -9 -10 -9 4 0 9 6 18 13 18 28 3 32 4 32 14 0 6 -4
8 -10 7 -27 -10 -45 -10 -50 -1 -11 16 -23 0 -17 -23 3 -15 2 -19 -7 -14 -14
9 -43 -12 -35 -25 3 -5 10 -7 15 -4 5 4 9 1 9 -4 0 -10 -7 -13 -26 -10 -4 0
-10 -5 -14 -11 -5 -8 -13 -9 -21 -4 -8 5 -17 9 -21 9 -3 0 -9 3 -13 7 -10 10
41 21 56 12 8 -5 9 -3 4 5 -5 9 -19 11 -41 6 -19 -3 -43 -1 -55 6 -20 10 -21
9 -15 -15 5 -20 3 -24 -9 -20 -10 4 -15 0 -15 -14 0 -24 -25 -48 -35 -32 -6 9
1 14 18 11 11 -2 8 3 -14 22 -20 18 -21 18 -14 -2 5 -17 3 -20 -12 -15 -17 5
-17 5 -1 -8 12 -10 13 -19 7 -31 -10 -18 0 -23 17 -9 14 12 94 36 115 35 11
-1 19 2 19 8 0 5 17 9 39 9 39 0 67 19 53 36 -4 4 1 2 10 -5 15 -11 23 -11 52
3 19 9 39 16 46 16 6 0 9 4 6 9 -3 5 2 8 12 7 11 0 16 6 16 17 -1 13 1 15 10
8 13 -11 86 16 86 30 0 4 14 10 30 14 17 4 30 11 30 16 0 5 6 9 14 9 17 0 174
78 200 99 11 9 16 10 12 4 -4 -8 -1 -13 8 -13 9 0 16 5 16 10 0 6 12 10 28 10
19 0 23 3 13 9 -7 5 -23 6 -35 3 -11 -3 -18 -2 -14 3 4 4 31 8 60 9 33 0 53 5
53 13 0 6 4 15 9 20 5 5 6 3 2 -4 -5 -9 1 -13 18 -13 14 0 26 5 26 10 0 6 12
10 26 10 14 0 23 4 19 10 -3 6 1 10 9 10 28 0 31 1 38 15 5 7 17 11 28 8 11
-3 20 0 20 6 0 6 14 11 30 11 17 0 30 5 30 10 0 6 11 10 24 10 14 0 28 5 31
10 3 6 16 10 28 10 13 0 33 8 46 17 14 9 21 12 18 6 -7 -12 30 -6 48 7 6 4 40
13 78 21 37 7 76 21 87 31 10 10 24 18 30 18 6 0 8 5 5 10 -3 6 -2 10 4 10 19
0 62 55 57 73 -4 15 -2 16 10 6 11 -9 14 -8 14 9 0 11 6 22 13 25 8 3 4 13
-13 32 -14 16 -20 25 -13 22 8 -5 8 -1 0 16 -6 13 -20 28 -32 33 -11 5 -20 16
-20 24 0 18 -40 26 -50 10z m32 -15 c9 -25 -4 -29 -17 -6 -7 15 -7 21 0 21 6
0 13 -7 17 -15z m-32 -15 c3 -5 1 -10 -4 -10 -6 0 -11 5 -11 10 0 6 2 10 4 10
3 0 8 -4 11 -10z m-109 -63 c0 -25 -32 -33 -41 -9 -3 9 1 12 15 7 11 -4 20 -3
19 2 -2 11 0 23 4 23 2 0 3 -10 3 -23z m99 -27 c17 -18 17 -20 2 -14 -9 3 -17
10 -17 14 0 5 -8 11 -17 13 -15 4 -15 5 -2 6 9 0 24 -8 34 -19z m115 5 c0 -2
-9 -3 -19 -2 -11 0 -18 5 -15 9 4 6 34 0 34 -7z m-410 -35 c0 -5 -5 -10 -11
-10 -5 0 -7 5 -4 10 3 6 8 10 11 10 2 0 4 -4 4 -10z m86 -11 c1 -5 2 -12 3
-15 0 -4 8 -1 16 6 8 7 12 17 8 23 -3 6 -1 7 6 3 6 -4 8 -13 4 -19 -4 -7 -7
-21 -5 -32 l2 -20 -9 20 c-9 19 -10 18 -11 -5 -1 -23 -3 -21 -16 18 -4 14 -44
-20 -44 -38 0 -15 -23 -12 -46 5 -16 13 -16 14 -1 9 13 -5 16 -2 11 10 -3 9
-11 13 -17 9 -6 -4 -7 -1 -2 7 6 10 11 9 21 -5 7 -10 11 -22 8 -26 -11 -19 8
-8 31 17 14 15 25 34 25 42 0 16 14 8 16 -9z m221 -13 c-1 -6 4 -10 11 -8 8 1
11 -2 7 -8 -5 -8 -13 -6 -24 4 -10 9 -21 13 -26 9 -4 -5 -5 -3 -2 3 3 6 13 11
21 11 8 0 14 -5 13 -11z m-337 -16 c0 -5 -5 -10 -11 -10 -5 0 -7 5 -4 10 3 6
8 10 11 10 2 0 4 -4 4 -10z m117 -62 c-3 -8 -6 -5 -6 6 -1 11 2 17 5 13 3 -3
4 -12 1 -19z m-207 -5 c0 -15 -2 -16 -10 -3 -6 10 -10 11 -10 3 0 -7 -7 -13
-15 -13 -9 0 -12 -6 -9 -17 5 -14 4 -15 -4 -4 -5 7 -14 11 -20 7 -6 -3 -13 -2
-17 4 -3 5 -1 11 4 11 6 1 15 2 21 3 5 0 15 7 22 14 18 18 38 15 38 -5z m338
-6 c6 3 9 10 5 16 -5 8 -2 8 9 0 8 -7 19 -9 23 -5 5 4 5 1 1 -5 -4 -7 -16 -13
-27 -13 -13 0 -18 -4 -13 -12 4 -7 -4 -3 -18 10 -13 12 -28 19 -33 15 -4 -5
-5 -2 -1 5 7 11 11 11 24 -1 10 -8 23 -12 30 -10z m-151 -13 c-3 -3 -12 -4
-19 -1 -8 3 -5 6 6 6 11 1 17 -2 13 -5z m230 0 c-3 -3 -12 -4 -19 -1 -8 3 -5
6 6 6 11 1 17 -2 13 -5z m-237 -18 c0 -3 -4 -8 -10 -11 -5 -3 -10 -1 -10 4 0
6 5 11 10 11 6 0 10 -2 10 -4z m-338 -58 c-1 -5 5 -8 14 -8 8 0 13 4 9 9 -3 5
-1 12 4 15 5 4 8 -2 7 -11 -2 -10 4 -24 13 -31 14 -11 13 -12 -6 -3 -12 6 -31
11 -43 11 -12 0 -19 4 -15 9 3 5 1 12 -4 15 -5 3 -7 16 -3 28 5 21 5 21 15 -3
6 -13 9 -27 9 -31z m95 37 c0 -8 -4 -12 -9 -9 -5 3 -6 10 -3 15 9 13 12 11 12
-6z m266 1 c4 -10 1 -13 -8 -9 -8 3 -12 9 -9 14 7 12 11 11 17 -5z m-164 -9
c8 -10 7 -14 -2 -14 -8 0 -14 6 -14 14 0 7 1 13 2 13 2 0 8 -6 14 -13z m-128
-10 c-1 -12 -15 -9 -19 4 -3 6 1 10 8 8 6 -3 11 -8 11 -12z m209 -2 c0 -2 -6
-5 -13 -8 -8 -3 -14 1 -14 8 0 7 6 11 14 8 7 -3 13 -6 13 -8z m-185 -29 c0
-20 -3 -22 -17 -15 -10 5 -18 12 -18 15 0 3 4 3 9 0 5 -3 11 1 15 9 8 21 11
19 11 -9z m225 14 c0 -5 -5 -10 -11 -10 -5 0 -7 5 -4 10 3 6 8 10 11 10 2 0 4
-4 4 -10z m-133 -6 c-3 -3 -12 -4 -19 -1 -8 3 -5 6 6 6 11 1 17 -2 13 -5z
m-277 -61 c0 -2 -4 -1 -10 2 -5 3 -10 1 -10 -4 0 -6 -3 -10 -7 -8 -5 1 -8 -2
-8 -8 0 -5 3 -9 7 -8 4 2 5 -4 2 -12 -4 -8 -10 -15 -16 -15 -5 0 -7 4 -4 8 3
5 -4 16 -15 26 -12 10 -18 20 -14 24 3 3 10 0 14 -7 12 -18 25 4 16 27 -5 14
-7 14 -15 2 -8 -12 -10 -10 -10 8 l0 23 35 -27 c19 -14 35 -28 35 -31z m-315
-113 c10 16 25 2 25 -23 -1 -21 -1 -21 -12 -2 -11 19 -11 19 -18 0 -4 -11 -3
-26 3 -33 5 -7 7 -15 3 -19 -3 -3 -6 0 -6 7 0 10 -3 10 -12 -2 -11 -14 -15
-15 -26 -3 -10 12 -8 18 9 34 19 18 20 22 8 38 -13 16 -12 17 3 5 11 -9 18
-10 23 -2z m62 -16 c2 -6 -3 -11 -10 -11 -8 0 -14 6 -14 14 0 15 19 12 24 -3z
m28 -14 c3 -5 1 -10 -4 -10 -6 0 -11 5 -11 10 0 6 2 10 4 10 3 0 8 -4 11 -10z
m-168 -82 c-3 -8 -6 -5 -6 6 -1 11 2 17 5 13 3 -3 4 -12 1 -19z m-10 -34 c0
-20 -23 -24 -24 -5 -1 10 4 18 11 18 7 0 13 -6 13 -13z m-167 -74 c8 -5 11
-10 5 -10 -5 0 -17 5 -25 10 -8 5 -10 10 -5 10 6 0 17 -5 25 -10z m-164 -23
c1 -9 -4 -17 -11 -17 -8 0 -19 -8 -24 -17 -9 -16 -10 -16 -11 5 0 12 5 21 13
20 6 -2 11 5 11 15 -2 23 18 17 22 -6z m34 -27 c0 -5 -2 -10 -4 -10 -3 0 -8 5
-11 10 -3 6 -1 10 4 10 6 0 11 -4 11 -10z"/>
<path d="M3684 5501 c0 -11 6 -17 13 -14 6 3 9 11 6 19 -7 20 -19 17 -19 -5z"/>
<path d="M3328 5343 c7 -3 16 -2 19 1 4 3 -2 6 -13 5 -11 0 -14 -3 -6 -6z"/>
<path d="M3328 5313 c7 -3 16 -2 19 1 4 3 -2 6 -13 5 -11 0 -14 -3 -6 -6z"/>
<path d="M3050 5283 c0 -1 8 -7 18 -12 13 -7 19 -6 19 2 0 7 -9 13 -19 13 -10
0 -18 -1 -18 -3z"/>
<path d="M3176 5278 c3 -4 15 -13 27 -19 12 -7 19 -8 15 -4 -4 5 -2 15 4 24
10 13 10 14 -2 4 -16 -15 -34 -17 -26 -5 3 5 -1 9 -9 9 -8 0 -12 -4 -9 -9z"/>
<path d="M3153 5265 c0 -8 4 -12 9 -9 5 3 6 10 3 15 -9 13 -12 11 -12 -6z"/>
<path d="M3105 5231 c-3 -5 -2 -12 3 -15 5 -3 9 1 9 9 0 17 -3 19 -12 6z"/>
<path d="M3150 5230 c0 -5 5 -10 11 -10 5 0 7 5 4 10 -3 6 -8 10 -11 10 -2 0
-4 -4 -4 -10z"/>
<path d="M3200 5224 c-17 -9 -20 -14 -9 -14 9 0 22 7 29 15 15 18 13 18 -20
-1z"/>
<path d="M3176 5191 c-13 -5 -16 -10 -9 -14 7 -4 15 -2 18 4 4 5 14 8 22 5 8
-3 11 -1 8 4 -7 11 -12 12 -39 1z"/>
<path d="M2873 5135 c0 -8 4 -12 9 -9 5 3 6 10 3 15 -9 13 -12 11 -12 -6z"/>
<path d="M2908 5133 c6 -2 9 -10 6 -15 -4 -7 -2 -8 5 -4 13 9 5 26 -12 25 -9
0 -8 -2 1 -6z"/>
<path d="M2971 5127 c-6 -8 -8 -17 -4 -20 3 -4 0 -13 -6 -21 -10 -11 -8 -15 6
-20 10 -3 5 -5 -12 -4 -46 0 -48 -1 -35 -17 10 -12 16 -13 26 -4 11 9 18 8 29
-1 12 -10 18 -10 30 0 14 12 13 15 -5 32 -22 21 -27 42 -7 35 6 -2 11 -10 10
-16 -4 -14 14 -15 22 -1 4 6 11 7 17 4 7 -4 8 -2 4 5 -4 6 -13 11 -19 10 -7
-1 -20 1 -30 6 -15 6 -16 10 -5 16 8 5 9 9 2 9 -6 0 -17 -6 -23 -13z"/>
<path d="M2900 5084 c0 -8 5 -12 10 -9 6 4 8 11 5 16 -9 14 -15 11 -15 -7z"/>
<path d="M2706 5022 c-3 -5 1 -9 9 -9 8 0 12 4 9 9 -3 4 -7 8 -9 8 -2 0 -6 -4
-9 -8z"/>
<path d="M2644 4988 c3 -19 25 -55 26 -41 0 6 -5 15 -10 18 -6 4 -8 10 -5 15
3 5 1 11 -4 14 -5 4 -8 0 -7 -6z"/>
<path d="M2699 4951 c11 -10 18 -20 15 -24 -3 -3 -1 -7 3 -10 5 -3 10 3 10 14
1 10 -3 19 -8 19 -6 0 -8 4 -5 8 2 4 -4 9 -16 9 -20 2 -20 2 1 -16z"/>
<path d="M2630 4936 c0 -2 7 -7 16 -10 8 -3 12 -2 9 4 -6 10 -25 14 -25 6z"/>
<path d="M2676 4925 c-3 -8 -12 -15 -20 -15 -8 0 -14 -8 -13 -20 1 -10 3 -17
6 -15 2 3 10 0 17 -6 7 -6 18 -8 24 -4 15 9 1 27 -17 21 -9 -4 -13 -1 -11 6 3
7 11 13 18 13 16 0 25 21 12 29 -6 3 -12 -1 -16 -9z"/>
<path d="M2615 4910 c3 -5 2 -10 -2 -10 -5 0 -9 -10 -10 -22 0 -13 1 -17 4 -9
4 10 7 10 13 2 4 -7 7 1 8 18 0 17 -4 31 -9 31 -6 0 -7 -4 -4 -10z"/>
<path d="M2534 4892 c3 -6 2 -13 -4 -17 -6 -4 -7 -11 -4 -17 5 -8 1 -9 -11 -4
-14 5 -16 4 -7 -7 7 -8 11 -16 9 -18 -1 -2 7 5 18 16 11 11 17 22 12 23 -4 2
-5 8 -2 12 3 5 0 12 -6 16 -7 4 -9 3 -5 -4z"/>
<path d="M2460 4876 c0 -2 7 -7 16 -10 8 -3 12 -2 9 4 -6 10 -25 14 -25 6z"/>
<path d="M2450 4820 c0 -5 5 -10 10 -10 6 0 10 5 10 10 0 6 -4 10 -10 10 -5 0
-10 -4 -10 -10z"/>
<path d="M2336 4802 c-3 -5 1 -9 9 -9 8 0 12 4 9 9 -3 4 -7 8 -9 8 -2 0 -6 -4
-9 -8z"/>
<path d="M2495 4780 c4 -6 11 -8 16 -5 14 9 11 15 -7 15 -8 0 -12 -5 -9 -10z"/>
<path d="M2257 4710 c3 -11 9 -17 15 -14 5 3 4 12 -3 20 -16 19 -18 18 -12 -6z"/>
<path d="M2293 4715 c0 -6 6 -12 12 -12 6 0 12 6 12 12 0 6 -6 12 -12 12 -6 0
-12 -6 -12 -12z"/>
<path d="M2083 4705 c0 -8 4 -15 9 -15 4 0 8 4 8 9 0 6 -4 12 -8 15 -5 3 -9
-1 -9 -9z"/>
<path d="M2230 4702 c0 -7 5 -12 11 -12 8 0 7 -5 -1 -15 -18 -22 -8 -27 23
-12 26 12 39 33 15 24 -7 -2 -21 2 -30 11 -12 10 -18 11 -18 4z"/>
<path d="M2104 4659 c-4 -7 -3 -9 4 -5 6 3 13 2 17 -4 4 -6 -5 -10 -20 -10
-15 0 -24 4 -20 10 4 6 -1 7 -11 3 -15 -6 -15 -7 1 -15 9 -6 28 -8 41 -5 14 2
27 0 30 -4 3 -5 -3 -9 -12 -9 -10 0 -15 -3 -11 -6 3 -4 14 -4 23 0 12 5 14 9
5 20 -6 7 -7 17 -3 22 4 5 3 6 -2 2 -5 -4 -15 -3 -22 3 -8 7 -14 6 -20 -2z"/>
<path d="M2190 4660 c-8 -5 -18 -6 -22 -4 -4 3 -8 0 -8 -7 0 -6 8 -9 20 -6 11
3 20 1 20 -4 0 -5 4 -9 9 -9 9 0 9 25 0 34 -2 3 -11 1 -19 -4z"/>
<path d="M2090 4611 c0 -6 4 -13 10 -16 6 -3 7 1 4 9 -7 18 -14 21 -14 7z"/>
<path d="M1897 4569 c7 -9 9 -19 5 -24 -4 -4 -1 -6 7 -3 8 2 17 11 19 19 3 8
1 11 -3 7 -5 -4 -15 -2 -24 5 -14 10 -14 10 -4 -4z"/>
<path d="M1945 4561 c-6 -11 13 -26 22 -17 4 3 1 6 -6 6 -7 0 -9 5 -6 10 3 6
4 10 1 10 -3 0 -7 -4 -11 -9z"/>
<path d="M1796 4552 c-2 -4 4 -8 14 -8 10 0 16 4 14 8 -3 4 -9 8 -14 8 -5 0
-11 -4 -14 -8z"/>
<path d="M1988 4553 c6 -2 18 -2 25 0 6 3 1 5 -13 5 -14 0 -19 -2 -12 -5z"/>
<path d="M1735 4480 c-3 -5 -1 -10 4 -10 6 0 11 5 11 10 0 6 -2 10 -4 10 -3 0
-8 -4 -11 -10z"/>
<path d="M1164 4166 c11 -9 24 -16 30 -16 12 0 7 5 -24 19 -24 11 -24 11 -6
-3z"/>
<path d="M1213 4165 c0 -8 4 -12 9 -9 5 3 6 10 3 15 -9 13 -12 11 -12 -6z"/>
<path d="M1075 4151 c-3 -5 -2 -12 3 -15 5 -3 9 1 9 9 0 17 -3 19 -12 6z"/>
<path d="M1160 4147 c0 -2 6 -10 14 -16 11 -9 16 -9 22 1 4 7 4 10 -1 6 -4 -4
-14 -3 -22 3 -7 6 -13 9 -13 6z"/>
<path d="M1155 4111 c-3 -5 -2 -12 3 -15 5 -3 9 1 9 9 0 17 -3 19 -12 6z"/>
<path d="M1171 4081 c-9 -6 -10 -10 -2 -12 8 -3 6 -11 -4 -27 -16 -21 -43 -33
-30 -12 3 6 2 10 -4 10 -5 0 -8 9 -6 20 2 11 0 18 -4 15 -20 -12 29 -215 52
-215 5 0 7 -6 4 -12 -2 -7 -1 -22 4 -33 5 -14 8 -2 8 36 1 31 -4 61 -11 68
-11 11 -10 12 0 7 10 -6 12 11 10 78 -2 47 -3 86 -3 86 0 0 -6 -4 -14 -9z m9
-79 c0 -4 -9 -8 -20 -9 -11 -1 -18 2 -15 8 7 11 35 12 35 1z"/>
</g>
</svg>
